# AST/ASF file generated using VICON BodyLanguage
# -----------------------------------------------
:version 1.10
:name VICON
:units
  mass 1.0
  length 0.45
  angle deg
:documentation
   .ast/.asf automatically generated from VICON data using
   VICON BodyBuilder and BodyLanguage model FoxedUp or BRILLIANT.MOD
:root
   order TX TY TZ RX RY RZ
   axis XYZ
   position 0 0 0  
   orientation 0 0 0 
:bonedata
  begin
     id 1 
     name lhipjoint
     direction 0.54267 -0.795011 0.271047 
     length 2.39899 
     axis 0 0 0  XYZ
  end
  begin
     id 2 
     name lfemur
     direction 0.34202 -0.939693 0  
     length 7.49701  
     axis 0 0 20  XYZ
    dof rx ry rz
    limits (-160.0 20.0)
           (-70.0 70.0)
           (-60.0 70.0)
  end
  begin
     id 3 
     name ltibia
     direction 0.34202 -0.939693 0   
     length 8.1668   
     axis 0 0 20   XYZ
    dof rx
    limits (-10.0 170.0)
  end
  begin
     id 4 
     name lfoot
     direction 0.0736283 -0.202292 0.976554   
     length 2.13544   
     axis -90 7.62852e-016 20   XYZ
    dof rx rz
    limits (-45.0 90.0)
           (-70.0 20.0)
  end
  begin
     id 5 
     name ltoes
     direction 1.53557e-011 -4.22024e-011 1   
     length 1.07411   
     axis -90 7.62852e-016 20   XYZ
    dof rx
    limits (-90.0 20.0)
  end
  begin
     id 6 
     name rhipjoint
     direction -0.538061 -0.797813 0.272002   
     length 2.39057  
     axis 0 0 0  XYZ 
  end
  begin
     id 7 
     name rfemur
     direction -0.34202 -0.939693 0   
     length 7.50152   
     axis 0 0 -20   XYZ
    dof rx ry rz
    limits (-160.0 20.0)
           (-70.0 70.0)
           (-70.0 60.0)
  end
  begin
     id 8 
     name rtibia
     direction -0.34202 -0.939693 0   
     length 8.05793   
     axis 0 0 -20   XYZ
    dof rx
    limits (-10.0 170.0)
 end
 begin
     id 9 
     name rfoot
     direction -0.0765195 -0.210236 0.974652   
     length 2.28698  
     axis -90 -7.62852e-016 -20   XYZ
    dof rx rz
    limits (-45.0 90.0)
           (-20.0 70.0)
  end
  begin
     id 10 
     name rtoes
     direction -1.53542e-011 -4.21847e-011 1   
     length 1.14762   
     axis -90 -7.62852e-016 -20   XYZ
    dof rx
    limits (-90.0 20.0)
  end
  begin
     id 11 
     name lowerback
     direction -0.0217239 0.996592 -0.0795765   
     length 2.08176   
     axis 0 0 0   XYZ
    dof rx ry rz
    limits (-20.0 45.0)
           (-30.0 30.0)
           (-30.0 30.0)
  end
  begin
     id 12 
     name upperback
     direction -0.00563773 0.999651 -0.0258155   
     length 2.08898   
     axis 0 0 0   XYZ
    dof rx ry rz
    limits (-20.0 45.0)
           (-30.0 30.0)
           (-30.0 30.0)
  end
  begin
     id 13 
     name thorax
     direction 0.0032706 0.999923 0.0119599   
     length 2.0968   
     axis 0 0 0   XYZ
    dof rx ry rz
    limits (-20.0 45.0)
           (-30.0 30.0)
           (-30.0 30.0)
  end
  begin
     id 14 
     name lowerneck
     direction -0.0285886 0.99568 0.0883427   
     length 1.81272   
     axis 0 0 0   XYZ
    dof rx ry rz
    limits (-20.0 45.0)
           (-30.0 30.0)
           (-30.0 30.0)
  end
  begin
     id 15 
     name upperneck
     direction 0.0807535 0.97985 -0.18268   
     length 1.82518   
     axis 0 0 0   XYZ
    dof rx ry rz
    limits (-20.0 45.0)
           (-30.0 30.0)
           (-30.0 30.0)
  end
  begin
     id 16
     name head
     direction 0.0236605 0.997053 -0.0729767  
     length 1.84443  
     axis 0 0 0   XYZ
    dof rx ry rz
    limits (-20.0 45.0)
           (-30.0 30.0)
           (-30.0 30.0)
  end
  begin
     id 17 
     name lclavicle
     direction 0.918986 0.39378 -0.0200683  
     length 3.27822  
     axis 0 0 0   XYZ
    dof ry rz
    limits (-20.0 10.0)
           (0.0 20.0)
  end
  begin
     id 18 
     name lhumerus
     direction 1 -4.4897e-011 2.09544e-027   
     length 5.5568   
     axis 180 -30 -90   XYZ
    dof rx ry rz
    limits (-60.0 90.0)
           (-90.0 90.0)
           (-90.0 90.0)
  end
  begin
     id 19
     name lradius
     direction 1 -4.48957e-011 -1.27696e-026   
     length 3.63979   
     axis 180 -30 -90   XYZ
    dof rx
    limits (-10.0 170.0)
  end
  begin
     id 20
     name lwrist
     direction 1 -4.49001e-011 -1.49001e-026   
     length 1.8199   
     axis 9.0955e-015 90 90   XYZ
    dof ry
    limits (-180.0 0.0)
 end
  begin
     id 21 
     name lhand
     direction 1 -4.48709e-011 -2.9758e-026   
     length 0.569419   
     axis 1.90115e-014 90 90   XYZ
    dof rx rz
    limits (-90.0 90.0)
           (-45.0 45.0)
  end
  begin
     id 22 
     name lfingers
     direction 1 -4.49175e-011 -5.96505e-026   
     length 0.45908   
     axis 3.80223e-014 90 90   XYZ
    dof rx
    limits (0.0 90.0)
  end
  begin
     id 23
     name lthumb
     direction 0.707107 -6.34864e-011 0.707107   
     length 0.65915   
     axis -90 45 -3.84942e-014   XYZ
    dof rx rz
    limits (-45.0 45.0)
           (-45.0 45.0)
  end
  begin
     id 24 
     name rclavicle
     direction -0.911913 0.396426 -0.106115   
     length 3.46301  
     axis 0 0 0   XYZ 
    dof ry rz
    limits (-10.0 20.0)
           (-20.0 0.0)
  end
  begin
     id 25 
     name rhumerus
     direction -1 -4.48965e-011 7.78516e-028  
     length 5.34339   
     axis 180 30 90   XYZ
    dof rx ry rz
    limits (-90.0 60.0)
           (-90.0 90.0)
           (-90.0 90.0)
  end
  begin
     id 26 
     name rradius
     direction -1 -4.48948e-011 -5.79823e-027   
     length 3.65101   
     axis 180 30 90   XYZ
    dof rx
    limits (-10.0 170.0)
  end
  begin
     id 27 
     name rwrist
     direction -1 -4.48995e-011 -1.48996e-026   
     length 1.8255   
     axis 9.0955e-015 -90 -90   XYZ
    dof ry
    limits (-180.0 0.0)
  end
  begin
     id 28
     name rhand
     direction -1 -4.48957e-011 -2.97937e-026   
     length 0.694249   
     axis 1.90115e-014 -90 -90   XYZ
    dof rx rz
    limits (-90.0 90.0)
           (-45.0 45.0)
  end
  begin
     id 29
     name rfingers
     direction -1 -4.4898e-011 -5.95943e-026   
     length 0.559721   
     axis 3.80223e-014 -90 -90   XYZ
    dof rx
    limits (0.0 90.0)
  end
  begin
     id 30
     name rthumb
     direction -0.707107 -6.34969e-011 0.707107   
     length 0.803651   
     axis -90 -45 3.84942e-014   XYZ
    dof rx rz
    limits (-45.0 45.0)
           (-45.0 45.0)
  end
:hierarchy
  begin
    root lhipjoint rhipjoint lowerback
    lhipjoint lfemur
    lfemur ltibia
    ltibia lfoot
    lfoot ltoes
    rhipjoint rfemur
    rfemur rtibia
    rtibia rfoot
    rfoot rtoes
    lowerback upperback
    upperback thorax
    thorax lowerneck lclavicle rclavicle
    lowerneck upperneck
    upperneck head
    lclavicle lhumerus
    lhumerus lradius
    lradius lwrist
    lwrist lhand lthumb
    lhand lfingers
    rclavicle rhumerus
    rhumerus rradius
    rradius rwrist
    rwrist rhand rthumb
    rhand rfingers
  end

#!OML:ASF H:\Terrain\Walking\May29\JustinRory\rory.ASF
:FULLY-SPECIFIED
:DEGREES
1
root 12.3109 18.2226 -18.3314 4.7292 -67.9638 -1.22721
lowerback -4.10165 2.73895 2.09258
upperback -0.112903 3.51866 1.04503
thorax 2.24064 1.76744 0.114183
lowerneck -1.90817 11.138 9.76109
upperneck 16.7157 16.1152 -10.9144
head 7.10231 7.61773 -3.82655
rclavicle 1.95182e-014 2.78299e-014
rhumerus -41.7593 -21.705 -68.4257
rradius 29.0678
rwrist 6.41302
rhand -17.7423 31.078
rfingers 7.12502
rthumb 8.51899 1.26987
lclavicle 1.95182e-014 2.78299e-014
lhumerus -36.2715 8.47917 79.7316
lradius 28.4008
lwrist -3.26592
lhand -24.9553 20.9843
lfingers 7.12502
lthumb 1.55472 50.9583
rfemur -2.43224 13.3618 19.7585
rtibia 14.7296
rfoot -8.60703 -22.765
rtoes 4.13094
lfemur -4.72851 -7.93515 -15.0633
ltibia 20.4931
lfoot -21.2988 13.6831
ltoes -2.291
2
root 12.3201 18.2238 -18.342 6.69602 -67.8239 -3.1988
lowerback -4.0762 2.7359 2.80169
upperback -0.195228 3.474 1.29963
thorax 2.16777 1.74813 -0.0256108
lowerneck -1.60011 11.0638 9.05029
upperneck 16.4448 16.0013 -10.6394
head 6.86546 7.55756 -3.66969
rclavicle 6.3872e-014 1.86858e-014
rhumerus -41.7576 -21.5811 -68.3869
rradius 29.0718
rwrist 6.40423
rhand -18.0606 30.39
rfingers 7.12502
rthumb 8.21186 0.569575
lclavicle 6.3872e-014 1.86858e-014
lhumerus -36.3565 8.43307 79.9099
lradius 28.5483
lwrist -2.88924
lhand -25.19 20.0015
lfingers 7.12502
lthumb 1.32806 49.9771
rfemur -2.59237 13.7667 20.6334
rtibia 14.6233
rfoot -8.27223 -23.2706
rtoes 3.59608
lfemur -5.0469 -7.92273 -14.1227
ltibia 20.5942
lfoot -21.1876 13.5275
ltoes -2.38537
3
root 12.3036 18.2174 -18.3246 3.07766 -68.1417 0.335767
lowerback -4.00522 2.65886 1.52534
upperback -0.000830974 3.44321 0.975885
thorax 2.27133 1.72581 0.352398
lowerneck -1.34062 11.2107 9.16343
upperneck 16.2399 16.2524 -10.9946
head 6.82143 7.6758 -3.78935
rclavicle -9.8299e-014 -1.63003e-014
rhumerus -41.5953 -21.4142 -68.4308
rradius 28.9297
rwrist 6.48865
rhand -18.2539 29.9825
rfingers 7.12502
rthumb 8.02528 0.154868
lclavicle -9.8299e-014 -1.63003e-014
lhumerus -36.3637 8.72201 79.8639
lradius 28.5979
lwrist -2.72161
lhand -24.8035 31.4783
lfingers 7.12502
lthumb 1.70133 61.4513
rfemur -2.41364 13.4058 19.1393
rtibia 15.2144
rfoot -8.75316 -22.7476
rtoes 3.16359
lfemur -4.21569 -8.15749 -15.8362
ltibia 20.1065
lfoot -21.2333 14.0822
ltoes -2.99244
4
root 12.2979 18.2174 -18.3195 1.37843 -68.1721 2.06946
lowerback -4.01674 2.51252 0.827228
upperback 0.202948 3.28711 0.755287
thorax 2.4597 1.64307 0.512265
lowerneck -2.04375 11.5548 9.95396
upperneck 16.5015 16.7604 -11.5161
head 7.20056 7.89684 -3.96459
rclavicle 2.61153e-014 0
rhumerus -41.1055 -21.4403 -68.7905
rradius 28.7036
rwrist 6.76256
rhand -18.1747 30.4296
rfingers 7.12502
rthumb 8.10168 0.604894
lclavicle 2.61153e-014 0
lhumerus -35.9548 9.08015 79.5866
lradius 28.3932
lwrist -2.82439
lhand -22.3756 22.0502
lfingers 7.12502
lthumb 4.04607 51.9916
rfemur -2.22753 13.1954 18.3988
rtibia 15.1389
rfoot -9.14749 -22.4643
rtoes 4.48502
lfemur -4.08307 -8.21425 -16.6227
ltibia 20.1681
lfoot -21.324 14.2184
ltoes -3.22334
5
root 12.301 18.2204 -18.3262 2.41943 -68.0533 1.14137
lowerback -4.0695 2.62847 1.18825
upperback -0.0425309 3.41973 0.920532
thorax 2.24782 1.71089 0.483596
lowerneck -1.96428 11.4819 9.55523
upperneck 16.7729 16.6626 -11.2119
head 7.20115 7.84148 -3.82414
rclavicle -5.41191e-014 -7.95139e-016
rhumerus -41.6798 -21.326 -68.3553
rradius 28.8135
rwrist 6.64416
rhand -17.9659 30.9257
rfingers 7.12502
rthumb 8.30327 1.10891
lclavicle -5.41191e-014 -7.95139e-016
lhumerus -36.1542 8.82973 79.8569
lradius 28.2331
lwrist -3.05895
lhand -15.0422 11.9375
lfingers 7.12502
lthumb 11.124 41.6226
rfemur -2.56577 13.3018 18.7786
rtibia 15.3505
rfoot -9.18404 -22.6958
rtoes 4.52566
lfemur -4.25481 -8.17593 -16.1489
ltibia 20.0079
lfoot -21.2134 14.0354
ltoes -2.46774
